name C:\Users\u0101727\Documents\MyRepositories\paper-ad\trackingsimulations_3d\Results\TrackSim\IK_c9.mot
datacolumns 32
datarows 10
range 3.85000000 3.99400000
endheader
time	pelvis_tilt	pelvis_list	pelvis_rotation	pelvis_tx	pelvis_ty	pelvis_tz	hip_flexion_l	hip_adduction_l	hip_rotation_l	hip_flexion_r	hip_adduction_r	hip_rotation_r	knee_angle_l	knee_angle_r	ankle_angle_l	ankle_angle_r	subtalar_angle_l	subtalar_angle_r	lumbar_extension	lumbar_bending	lumbar_rotation	arm_flex_l	arm_add_l	arm_rot_l	arm_flex_r	arm_add_r	arm_rot_r	elbow_flex_l	elbow_flex_r	pro_sup_l	pro_sup_r	
          3.85000000	          0.29926900	         -3.01424728	          7.10740107	          0.02658072	          0.92245299	         -0.22396711	        -11.48505850	         -4.77610697	          1.36623433	         26.52004182	          4.44138475	         -7.54780334	        -36.10718594	        -22.75398456	         -4.20386790	         -5.99538961	         13.32038707	        -10.99859053	         -3.96254230	          5.51915660	         -8.62449078	         -1.76268365	        -14.53252482	         19.20464232	         -9.28549945	        -15.61437902	         14.50146033	         22.96838459	         11.49018914	         86.51662706	         86.51662706	
          3.86600000	          0.45730667	         -4.04818474	          6.93964625	          0.05029926	          0.92322638	         -0.22271697	         -9.51040794	         -6.01008392	          1.22658815	         25.60298198	          5.87659297	         -7.47710745	        -40.39475839	        -24.03319291	        -10.31467277	         -4.01934296	         11.94893166	        -11.16156615	         -3.76579070	          6.84781165	         -8.19009255	         -2.26209198	        -14.03053123	         19.48276250	         -9.06089016	        -15.91066804	         14.48205313	         21.88214718	         11.80833907	         86.51662706	         86.51662706	
          3.88200000	          0.65041237	         -4.89763894	          6.86035105	          0.07314537	          0.92455033	         -0.22171593	         -7.18751092	         -6.86086566	          1.79690343	         24.31701736	          7.06547300	         -7.50938524	        -44.73323756	        -24.72019559	        -15.47478682	         -2.01186605	         10.75696119	        -10.96476160	         -3.75214574	          7.95970924	         -7.77127154	         -2.62438059	        -13.59410923	         19.90575540	         -8.73034564	        -16.20609550	         14.34705102	         20.83848381	         12.32876603	         86.51662706	         86.51662706	
          3.89800000	          0.86116107	         -5.59225305	          6.87799326	          0.09505091	          0.92639424	         -0.22093177	         -4.54530876	         -7.37245689	          2.78814819	         22.75833321	          8.05290323	         -7.59943487	        -49.18203681	        -24.88744297	        -18.09801294	         -0.18699089	          9.72553258	        -10.59158045	         -3.89908509	          8.88280138	         -7.35803285	         -2.83809765	        -13.23942518	         20.47522551	         -8.31185291	        -16.50383678	         14.11713748	         19.88636976	         13.07815125	         86.51662706	         86.51662706	
          3.91400000	          1.08688594	         -6.11325202	          7.01278092	          0.11611638	          0.92880087	         -0.22036210	         -1.69333602	         -7.54691090	          4.01036063	         20.98092698	          8.82609015	         -7.72868205	        -53.41559067	        -24.61861721	        -19.13641108	          1.37809832	          8.06350075	        -10.11880432	         -4.17945189	          9.59192480	         -6.97389502	         -2.92677728	        -12.98480617	         21.15496380	         -7.84590156	        -16.80014519	         13.81787831	         19.06556427	         14.08632974	         86.51662706	         86.51662706	
          3.93000000	          1.30392961	         -6.40502267	          7.26174014	          0.13649557	          0.93175974	         -0.21998171	          1.33691804	         -7.34147513	          5.39271338	         19.05347276	          9.33101923	         -7.88456075	        -57.34865659	        -24.02263720	        -18.54088954	          2.70585723	          6.42120827	         -9.55464731	         -4.53797638	         10.01535776	         -6.63963660	         -2.93386378	        -12.84554289	         21.87294205	         -7.37185250	        -17.08322865	         13.47530654	         18.39717725	         15.36096515	         86.51662706	         86.51662706	
          3.94600000	          1.48437028	         -6.44674435	          7.58443924	          0.15638568	          0.93516186	         -0.21972196	          4.48146512	         -6.75863207	          6.79654266	         17.04221119	          9.55351761	         -8.06071481	        -60.80558540	        -23.19876414	        -16.79260627	          3.83252659	          5.05131932	         -8.88758128	         -4.90872463	         10.12106894	         -6.34736930	         -2.91737439	        -12.82229268	         22.53636610	         -6.91926558	        -17.34874775	         13.10965076	         17.90014422	         16.87554412	         86.51662706	         86.51662706	
          3.96200000	          1.59464686	         -6.25202336	          7.88816144	          0.17598121	          0.93882744	         -0.21944843	          7.66261533	         -5.85527918	          8.01853581	         15.01642269	          9.52932773	         -8.20397682	        -63.58899056	        -22.23196392	        -14.44480459	          4.77037968	          3.90563865	         -8.16006028	         -5.22897891	          9.91523522	         -6.03407125	         -2.93877109	        -12.90186383	         23.04468978	         -6.50625098	        -17.59941759	         12.73778872	         17.59457705	         18.57612895	         86.51662706	         86.51662706	
          3.97800000	          1.61882144	         -5.84748776	          8.06128983	          0.19541819	          0.94254904	         -0.21901318	         10.79304200	         -4.71220049	          8.88559082	         13.03422628	          9.30787322	         -8.23187247	        -65.57062360	        -21.21171851	        -11.77494932	          5.53517005	          2.97193748	         -7.43841688	         -5.47482428	          9.42196683	         -5.60583710	         -3.04173877	        -13.06248462	         23.30659800	         -6.13409504	        -17.84356654	         12.37318701	         17.49584556	         20.39921560	         86.51662706	         86.51662706	
          3.99400000	          1.55199444	         -5.27753638	          8.04031027	          0.21474646	          0.94611161	         -0.21834244	         13.80963223	         -3.43249874	          9.33044949	         11.15848436	          8.93055228	         -8.10657301	        -66.65493681	        -20.23667185	         -9.10167068	          6.16245009	          2.25496900	         -6.75077518	         -5.64250699	          8.69212586	         -5.01270500	         -3.24466755	        -13.27785826	         23.26464070	         -5.78620048	        -18.09415058	         12.02432987	         17.60279044	         22.28896156	         86.51662706	         86.51662706	
